<svg width="16" height="14" viewBox="0 0 16 14" fill="none" xmlns="http://www.w3.org/2000/svg">
<path d="M1.84667 13.8329C1.46278 13.8329 1.1425 13.7046 0.885833 13.4479C0.629167 13.1913 0.500556 12.8707 0.5 12.4863V3.51294C0.5 3.12905 0.628611 2.80878 0.885833 2.55211C1.14306 2.29544 1.46306 2.16683 1.84583 2.16628H9.61834C9.73722 2.16628 9.83917 2.20878 9.92417 2.29378C10.0092 2.37878 10.0461 2.48044 10.035 2.59878C10.0244 2.70711 9.97945 2.801 9.9 2.88044C9.82056 2.95989 9.72667 2.99961 9.61834 2.99961H1.33333V12.4871C1.33333 12.6366 1.38139 12.7593 1.4775 12.8554C1.57361 12.9516 1.69667 12.9996 1.84667 12.9996H14.1542C14.3036 12.9996 14.4264 12.9516 14.5225 12.8554C14.6186 12.7593 14.6667 12.6366 14.6667 12.4871V7.16628C14.6667 7.04794 14.7064 6.94878 14.7858 6.86878C14.8653 6.78877 14.9644 6.74905 15.0833 6.74961C15.2022 6.75016 15.3014 6.78989 15.3808 6.86878C15.4603 6.94766 15.5 7.04683 15.5 7.16628V12.4871C15.5 12.8704 15.3717 13.1904 15.115 13.4471C14.8583 13.7038 14.5381 13.8324 14.1542 13.8329H1.84667ZM8 7.16628L10.7358 5.38794C10.8447 5.31572 10.9458 5.29489 11.0392 5.32544C11.1331 5.356 11.2072 5.41572 11.2617 5.50461C11.3161 5.5935 11.3375 5.68516 11.3258 5.77961C11.3136 5.87516 11.2531 5.9585 11.1442 6.02961L8.3575 7.85711C8.23972 7.92933 8.12056 7.96822 8 7.97377C7.87945 7.97933 7.76028 7.94572 7.6425 7.87294L1.33333 3.91294V2.99961L8 7.16628ZM13.8333 4.89128C13.2567 4.89128 12.765 4.68822 12.3583 4.28211C11.9517 3.876 11.7489 3.38433 11.75 2.80711C11.7511 2.22989 11.9539 1.7385 12.3583 1.33294C12.7628 0.927387 13.2544 0.724609 13.8333 0.724609C14.4122 0.724609 14.9039 0.927387 15.3083 1.33294C15.7128 1.7385 15.9156 2.23016 15.9167 2.80794C15.9178 3.38572 15.715 3.87711 15.3083 4.28211C14.9017 4.68711 14.41 4.88989 13.8333 4.89044" fill="black"/>
</svg>
