<svg width="20" height="16" viewBox="0 0 20 16" fill="none" xmlns="http://www.w3.org/2000/svg">
<path d="M18.3332 8.05827C18.3332 11.2008 18.3332 12.7724 17.3565 13.7483C16.3798 14.7241 14.809 14.7249 11.6665 14.7249H8.33317C5.19067 14.7249 3.619 14.7249 2.64317 13.7483C1.66734 12.7716 1.6665 11.2008 1.6665 8.05827C1.6665 4.91577 1.6665 3.3441 2.64317 2.36827C3.61984 1.39243 5.19067 1.3916 8.33317 1.3916H11.6665C14.809 1.3916 16.3807 1.3916 17.3565 2.36827C17.9015 2.91243 18.1423 3.6416 18.2482 4.72493" stroke="black" stroke-width="1.5" stroke-linecap="round"/>
<path d="M7.49967 8.05794C7.49967 8.27896 7.41188 8.49092 7.2556 8.6472C7.09932 8.80348 6.88735 8.89128 6.66634 8.89128C6.44533 8.89128 6.23337 8.80348 6.07709 8.6472C5.92081 8.49092 5.83301 8.27896 5.83301 8.05794C5.83301 7.83693 5.92081 7.62497 6.07709 7.46869C6.23337 7.31241 6.44533 7.22461 6.66634 7.22461C6.88735 7.22461 7.09932 7.31241 7.2556 7.46869C7.41188 7.62497 7.49967 7.83693 7.49967 8.05794ZM10.833 8.05794C10.833 8.27896 10.7452 8.49092 10.5889 8.6472C10.4326 8.80348 10.2207 8.89128 9.99967 8.89128C9.77866 8.89128 9.5667 8.80348 9.41042 8.6472C9.25414 8.49092 9.16634 8.27896 9.16634 8.05794C9.16634 7.83693 9.25414 7.62497 9.41042 7.46869C9.5667 7.31241 9.77866 7.22461 9.99967 7.22461C10.2207 7.22461 10.4326 7.31241 10.5889 7.46869C10.7452 7.62497 10.833 7.83693 10.833 8.05794ZM14.1663 8.05794C14.1663 8.27896 14.0785 8.49092 13.9223 8.6472C13.766 8.80348 13.554 8.89128 13.333 8.89128C13.112 8.89128 12.9 8.80348 12.7438 8.6472C12.5875 8.49092 12.4997 8.27896 12.4997 8.05794C12.4997 7.83693 12.5875 7.62497 12.7438 7.46869C12.9 7.31241 13.112 7.22461 13.333 7.22461C13.554 7.22461 13.766 7.31241 13.9223 7.46869C14.0785 7.62497 14.1663 7.83693 14.1663 8.05794Z" fill="black"/>
</svg>
